Release Info:

General

Format                                   : Matroska
Format version                           : Version 2
File size                                : 692 MiB
Duration                                 : 1h 55mn
Overall bit rate                         : 836 Kbps


Video
ID                                       : 1
Format                                   : MPEG-4 Visual
Format profile                           : Advanced Simple@L5
Format settings, BVOP                    : Yes
Format settings, QPel                    : No
Format settings, GMC                     : No warppoints
Format settings, Matrix                  : Default (H.263)
Codec ID                                 : V_MS/VFW/FOURCC / XVID
Codec ID/Hint                            : XviD
Duration                                 : 1h 55mn
Bit rate                                 : 692 Kbps
Width                                    : 640 pixels
Height                                   : 272 pixels
Display aspect ratio                     : 2.35:1
Frame rate mode                          : Constant
Frame rate                               : 23.976 fps
Color space                              : YUV
Chroma subsampling                       : 4:2:0
Bit depth                                : 8 bits
Scan type                                : Progressive
Compression mode                         : Lossy
Bits/(Pixel*Frame)                       : 0.166
Stream size                              : 573 MiB (83%)
Language                                 : English
Default                                  : Yes
Forced                                   : No

Audio
ID                                       : 2
Format                                   : MPEG Audio
Format version                           : Version 1
Format profile                           : Layer 3
Mode                                     : Joint stereo
Mode extension                           : MS Stereo
Muxing mode                              : Header stripping
Codec ID                                 : A_MPEG/L3
Codec ID/Hint                            : MP3
Duration                                 : 1h 55mn
Bit rate mode                            : Constant
Bit rate                                 : 128 Kbps
Channel(s)                               : 2 channels
Sampling rate                            : 44.1 KHz
Compression mode                         : Lossy
Stream size                              : 106 MiB (15%)
Writing library                          : LAME3.98.2
Language                                 : English
Default                                  : Yes
Forced                                   : No


Source:
credit to original movie ripper 3LT0N (Thanks)

IMDB Info:

Set in Depression-era Franklin County, Virginia, a bootlegging gang is threatened by a new deputy and other authorities who want a cut of their profits.

Director: John Hillcoat
Writers: Nick Cave (screenplay), Matt Bondurant (novel)
Stars: Tom Hardy, Shia LaBeouf and Guy Pearce

Genres: Crime | Drama
 
http://www.imdb.com/title/tt1212450/

Screen Shot:
 
http://www.shotpix.com/images/10453618692705310400.png 
http://www.shotpix.com/images/00286648154206422405.png 
http://www.shotpix.com/images/26231007176104476956.png 
http://www.shotpix.com/images/87011461052178962401.png 
http://www.shotpix.com/images/20217224180226697948.png 
http://www.shotpix.com/images/57103377117487485438.png 
http://www.shotpix.com/images/75879916682837081247.png 
http://www.shotpix.com/images/86390989103316204176.png